# xmcd
#
# Track frame offsets:
#	150
#	10349
#	23688
#	51293
#	62906
#	73226
#	92022
#	106006
#	119585
#	133421
#	143780
#	164202
#
# Disc length: 2577 seconds
#
# Revision: 0
# Processed by: cddbd v1.5.1PL2 Copyright (c) Steve Scherf et al.
# Submitted via: EasyCDDAExtractor 4.5.0.2
#
DISCID=b40a0f0c
DTITLE=ыая - MNMMMMMM
DYEAR=1900
DGENRE=
TTITLE0=опа кака
TTITLE1=лоуялоуяа
TTITLE2=цуяисе йомта лоу
TTITLE3=цакиамтяа
TTITLE4=йаядиокоцос
TTITLE5=осо анифеис есу
TTITLE6=ема сидеяо амалемо
TTITLE7=г сулпомиа
TTITLE8=ма 'ва 100 йаядиес
TTITLE9=ены мтеятиа 
TTITLE10=хекеис ма пехамы
TTITLE11=оуте та кежта соу
EXTD=
EXTT0=
EXTT1=
EXTT2=
EXTT3=
EXTT4=
EXTT5=
EXTT6=
EXTT7=
EXTT8=
EXTT9=
EXTT10=
EXTT11=
PLAYORDER=
